<svg width="30" height="24" viewBox="0 0 30 24" fill="none" xmlns="http://www.w3.org/2000/svg">
<g id="scissor">
<path id="Vector" d="M6.875 10C9.29125 10 11.25 8.433 11.25 6.5C11.25 4.567 9.29125 3 6.875 3C4.45875 3 2.5 4.567 2.5 6.5C2.5 8.433 4.45875 10 6.875 10Z" stroke="white" stroke-width="1.5" stroke-linecap="round" stroke-linejoin="round"/>
<path id="Vector_2" d="M6.875 21C9.29125 21 11.25 19.433 11.25 17.5C11.25 15.567 9.29125 14 6.875 14C4.45875 14 2.5 15.567 2.5 17.5C2.5 19.433 4.45875 21 6.875 21Z" stroke="white" stroke-width="1.5" stroke-linecap="round" stroke-linejoin="round"/>
<path id="Vector_3" d="M27.5 6L10.8125 15.98" stroke="white" stroke-width="1.5" stroke-linecap="round" stroke-linejoin="round"/>
<path id="Vector_4" d="M27.5 17.97L10.8125 7.98" stroke="white" stroke-width="1.5" stroke-linecap="round" stroke-linejoin="round"/>
</g>
</svg>
