<svg width="30" height="30" viewBox="0 0 30 30" fill="none" xmlns="http://www.w3.org/2000/svg">
<g id="vuesax/outline/setting-4">
<g id="setting-4">
<path id="Vector" d="M27.5 8.5625H20C19.7636 8.5625 19.5625 8.36136 19.5625 8.125C19.5625 7.88864 19.7636 7.6875 20 7.6875H27.5C27.7364 7.6875 27.9375 7.88864 27.9375 8.125C27.9375 8.36136 27.7364 8.5625 27.5 8.5625Z" fill="#292D32" stroke="white"/>
<path id="Vector_2" d="M7.5 8.5625H2.5C2.26364 8.5625 2.0625 8.36136 2.0625 8.125C2.0625 7.88864 2.26364 7.6875 2.5 7.6875H7.5C7.73636 7.6875 7.9375 7.88864 7.9375 8.125C7.9375 8.36136 7.73636 8.5625 7.5 8.5625Z" fill="#292D32" stroke="white"/>
<path id="Vector_3" d="M12.5 12.9375C9.85114 12.9375 7.6875 10.7739 7.6875 8.125C7.6875 5.47614 9.85114 3.3125 12.5 3.3125C15.1489 3.3125 17.3125 5.47614 17.3125 8.125C17.3125 10.7739 15.1489 12.9375 12.5 12.9375ZM12.5 4.1875C10.3239 4.1875 8.5625 5.94886 8.5625 8.125C8.5625 10.3011 10.3239 12.0625 12.5 12.0625C14.6761 12.0625 16.4375 10.3011 16.4375 8.125C16.4375 5.94886 14.6761 4.1875 12.5 4.1875Z" fill="#292D32" stroke="white"/>
<path id="Vector_4" d="M27.5 22.3125H22.5C22.2636 22.3125 22.0625 22.1114 22.0625 21.875C22.0625 21.6386 22.2636 21.4375 22.5 21.4375H27.5C27.7364 21.4375 27.9375 21.6386 27.9375 21.875C27.9375 22.1114 27.7364 22.3125 27.5 22.3125Z" fill="#292D32" stroke="white"/>
<path id="Vector_5" d="M10 22.3125H2.5C2.26364 22.3125 2.0625 22.1114 2.0625 21.875C2.0625 21.6386 2.26364 21.4375 2.5 21.4375H10C10.2364 21.4375 10.4375 21.6386 10.4375 21.875C10.4375 22.1114 10.2364 22.3125 10 22.3125Z" fill="#292D32" stroke="white"/>
<path id="Vector_6" d="M17.5 26.6875C14.8511 26.6875 12.6875 24.5239 12.6875 21.875C12.6875 19.2261 14.8511 17.0625 17.5 17.0625C20.1489 17.0625 22.3125 19.2261 22.3125 21.875C22.3125 24.5239 20.1489 26.6875 17.5 26.6875ZM17.5 17.9375C15.3239 17.9375 13.5625 19.6989 13.5625 21.875C13.5625 24.0511 15.3239 25.8125 17.5 25.8125C19.6761 25.8125 21.4375 24.0511 21.4375 21.875C21.4375 19.6989 19.6761 17.9375 17.5 17.9375Z" fill="#292D32" stroke="white"/>
</g>
</g>
</svg>
