<svg width="24" height="24" viewBox="0 0 24 24" fill="none" xmlns="http://www.w3.org/2000/svg">
<g id="image 1, sun, mountain">
<path id="Vector" d="M20 4.5V4H19.5L4.5 4H4V4.5V16.4394V17.6465L4.85355 16.7929L6.8965 14.75C7.05658 14.5899 7.27368 14.5 7.50006 14.5C7.72643 14.5 7.94354 14.5899 8.10361 14.75L10.1326 16.7789L10.5033 17.1497L10.8561 16.7617L15.3914 11.7729C15.5494 11.5991 15.7734 11.5 16.0083 11.5C16.2294 11.5 16.4414 11.5878 16.5978 11.7442L19.1464 14.2928L20 15.1464V13.9393V4.5ZM16.3676 12.2211L15.9968 11.8503L15.644 12.2383L11.1087 17.2271C10.9507 17.4009 10.7267 17.5 10.4918 17.5C10.2707 17.5 10.0587 17.4122 9.90231 17.2558L7.85361 15.2071L7.50006 14.8536L7.1465 15.2071L4.14645 18.2072L4 18.3536V18.5607V19.5V20H4.5H19.5H20V19.5V16.0606V15.8535L19.8536 15.7071L16.3676 12.2211ZM6.5 8.5C6.5 7.39543 7.39543 6.5 8.5 6.5C9.60457 6.5 10.5 7.39543 10.5 8.5C10.5 9.60457 9.60457 10.5 8.5 10.5C7.39543 10.5 6.5 9.60457 6.5 8.5ZM8.5 7C7.67157 7 7 7.67157 7 8.5C7 9.32843 7.67157 10 8.5 10C9.32843 10 10 9.32843 10 8.5C10 7.67157 9.32843 7 8.5 7ZM3.5 4.5C3.5 3.94772 3.94772 3.5 4.5 3.5H19.5C20.0523 3.5 20.5 3.94772 20.5 4.5V19.5C20.5 20.0523 20.0523 20.5 19.5 20.5H4.5C3.94772 20.5 3.5 20.0523 3.5 19.5V4.5Z" stroke="white"/>
</g>
</svg>
